<?xml version="1.0" encoding="iso-8859-1"?>
<!-- Uploaded to: SVG Repo, www.svgrepo.com, Generator: SVG Repo Mixer Tools -->
<!DOCTYPE svg PUBLIC "-//W3C//DTD SVG 1.1//EN" "http://www.w3.org/Graphics/SVG/1.1/DTD/svg11.dtd">
<svg fill="#000000" height="800px" width="800px" version="1.1" id="Capa_1" xmlns="http://www.w3.org/2000/svg" xmlns:xlink="http://www.w3.org/1999/xlink" 
	 viewBox="0 0 297 297" xml:space="preserve">
<path d="M292.088,140.81c-4.914-21.099-14.29-37.816-27.112-48.346c-5.173-4.247-10.862-7.391-16.871-9.425
	c7.904-5.428,12.853-10.021,13.413-10.55c3.169-2.989,3.539-7.9,0.853-11.33l-20.527-26.213c-1.478-1.888-3.689-3.056-6.081-3.215
	c-2.383-0.155-4.737,0.708-6.451,2.384c-12.882,12.596-25.614,20.184-37.999,22.704l18.151-19.638c2.986-3.23,2.986-8.214,0-11.444
	l-21.288-23.03C186.582,0.981,184.338,0,181.987,0c-0.009,0-0.018,0-0.027,0c-2.36,0.008-4.609,1.004-6.201,2.748l-22.048,24.163
	c-3.044,3.337-2.918,8.48,0.287,11.664l18.12,17.996c-22.057-5.209-36.012-25.901-36.293-26.324
	c-2.356-3.606-7.054-4.86-10.893-2.896c-3.843,1.963-5.583,6.512-4.03,10.54c5.596,14.515,12.159,26.614,19.652,36.265
	c-7.254-7.569-15.925-12.843-25.749-15.529c-23.72-6.482-53.653,1.951-86.579,24.386c-1.848,1.259-3.121,3.202-3.536,5.399
	c-0.416,2.198,0.058,4.471,1.318,6.318l15.965,23.408c2.53,3.709,7.518,4.786,11.351,2.449
	c13.811-8.414,46.761-22.857,54.713-10.944c2.233,3.344,2.575,6.7,1.047,10.26c-2.833,6.598-13.091,14.896-33.383,18.401
	c-4.283,0.74-7.301,4.613-6.972,8.946l3.041,40.02c0.324,4.274,3.825,7.624,8.109,7.786c6.411,0.24,24.671,3.115,32.079,13.384
	c3.953,5.48,4.566,12.642,1.871,21.895c-0.994,3.413-4.045,13.78-20.843,13.339c-13.532-0.369-30.454-7.593-45.266-19.326
	c-15.925-12.614-27.154-28.846-30.807-44.534c-0.989-4.247-5.046-7.035-9.373-6.438c-4.319,0.601-7.466,4.397-7.258,8.753
	c0.055,1.154,1.491,28.579,13.625,56.39C30.604,276.778,59.279,297,96.836,297c24.36,0,42.646-7.827,54.352-23.264
	c18.878-24.894,14.312-62.273,11.102-78.543c14.185-5.11,43.974-18.927,62.626-49.473c3.406-5.581,8.084-7.894,13.179-6.507
	c7.517,2.044,15.746,12.365,16.052,30.197c0.428,24.921-12.099,40.03-23.966,45.859c-9.092,4.466-18.536,4.202-24.646-0.685
	c-5.704-4.563-9.566-13.905-10.567-17.101c-1.183-3.845-4.914-6.32-8.92-5.907c-4.002,0.412-7.155,3.594-7.53,7.601
	c-0.146,1.562-3.372,38.523,14.762,59.412c7.567,8.718,17.564,13.433,29.712,14.013c21.117,0.993,39.182-6.728,52.226-22.377
	C295.637,225.727,302.102,183.801,292.088,140.81z M182.027,20.893l9.768,10.567l-10.067,10.891l-10.114-10.045L182.027,20.893z
	 M175.571,74.261c19.605,2.167,39.285-5.146,58.618-21.744l9.872,12.607c-11.07,8.547-36.067,24.769-60.498,19.219
	c-8.779-1.994-16.817-6.701-24.075-14.078C164.424,72.196,169.793,73.624,175.571,74.261z M179.829,100.784
	c3.994,0.907,7.96,1.364,11.879,1.489c-2.894,4.349-5.442,8.999-7.963,13.599c-9.335,17.042-18.268,33.358-43.71,38.109
	c6.467-6.027,12.554-13.633,15.992-22.773c4.532-12.045,3.81-24.582-2.142-37.261c-2.374-5.055-5.12-9.623-8.186-13.713
	C155.642,90.999,167.041,97.88,179.829,100.784z M28.613,230.022c19,18.15,43.723,29.957,63.916,30.507
	c18.983,0.521,32.625-8.771,37.49-25.479c4.193-14.4,2.701-26.693-4.433-36.536c-9.702-13.385-27.412-17.965-37.534-19.52
	l-1.95-25.651c19.301-4.788,33.129-14.336,38.474-26.787c3.793-8.831,2.899-18.162-2.516-26.274
	c-15.714-23.539-54.184-6.698-70.519,1.96l-6.76-9.911c25.777-16.129,48.34-22.153,65.578-17.44
	c12.144,3.32,21.654,12.143,28.264,26.222c3.993,8.505,4.531,16.39,1.644,24.106c-7.082,18.931-32.125,30.176-32.363,30.28
	c-3.531,1.544-5.566,5.286-4.941,9.09c0.624,3.802,3.747,6.698,7.588,7.033c26.028,2.266,46.033-2.018,61.142-13.106
	c13.242-9.716,20.466-22.906,26.84-34.543c7.852-14.335,13.219-23.25,24.133-25.781c24.691-5.724,44.997,12.072,53.001,46.442
	c8.705,37.374,3.444,74.584-13.403,94.797c-9.664,11.593-22.601,17.08-38.47,16.331c-7.46-0.356-13.269-3.038-17.76-8.198
	c-4.271-4.907-6.913-11.406-8.529-17.996c11.101,7.3,26.17,7.682,40.11,0.834c16.512-8.111,33.954-28.469,33.391-61.282
	c-0.458-26.673-14.638-42.411-28.488-46.177c-12.4-3.372-24.664,1.987-31.993,13.99c-20.925,34.271-59.816,44.282-60.189,44.374
	c-2.217,0.541-4.118,1.963-5.272,3.932c-1.154,1.968-1.46,4.326-0.848,6.524c0.129,0.463,12.657,46.626-6.488,71.818
	c-8.35,10.987-22.108,16.558-40.892,16.558C66.196,280.14,42.632,261.855,28.613,230.022z"/>
</svg>